<?xml version="1.0" encoding="utf-8"?>
<!-- Generator: Adobe Illustrator 23.0.1, SVG Export Plug-In . SVG Version: 6.00 Build 0)  -->
<svg version="1.1" id="Layer_1" xmlns="http://www.w3.org/2000/svg" xmlns:xlink="http://www.w3.org/1999/xlink" x="0px" y="0px"
	 viewBox="0 0 1080 1080" style="enable-background:new 0 0 1080 1080;" xml:space="preserve">
<style type="text/css">
	.st0{clip-path:url(#SVGID_2_);fill:url(#SVGID_3_);}
	.st1{fill:#95D4E9;}
</style>
<g>
	<g>
		<defs>
			<path id="SVGID_1_" d="M501.3,642c-19.5-8.3-30.7-28.6-27.1-49.6l24.7-144.9l135.4,57.2c19.5,8.3,30.7,28.6,27.1,49.5
				l-24.7,144.9L501.3,642z M532,241l-17.3,9.5c-0.5,0.3-0.8,0.7-0.9,1.3L485,422.3l-159.3-67.6c-0.5-0.2-1.1-0.2-1.6,0.1l-17.4,9.5
				c-0.6,0.3-1,1-0.9,1.7c0,0.7,0.5,1.3,1.1,1.5l175.8,72.9l-28.8,160.1c-4.1,22.5,8.4,45.3,29.6,54l151.7,55.2l-31.7,178.3
				c-0.2,1,0.5,1.9,1.4,2.1c0.1,0,0.2,0,0.3,0c0.8,0,1.6-0.6,1.7-1.4l36.6-176l168.5,63.6c0.9,0.3,1.9-0.1,2.3-1
				c0.4-0.9-0.1-1.9-1-2.3L646,703.5l35.4-157.4c4.1-22.5-8.4-45.3-29.5-54l-150.7-62.3l33.4-187c0.1-0.7-0.2-1.4-0.7-1.8
				c-0.3-0.2-0.7-0.3-1-0.3C532.6,240.7,532.3,240.8,532,241"/>
		</defs>
		<clipPath id="SVGID_2_">
			<use xlink:href="#SVGID_1_"  style="overflow:visible;"/>
		</clipPath>
		
			<linearGradient id="SVGID_3_" gradientUnits="userSpaceOnUse" x1="1884.0997" y1="1066.6039" x2="1885.0997" y2="1066.6039" gradientTransform="matrix(82.6491 149.8015 149.8015 -82.6491 -315010.7813 -193654.4219)">
			<stop  offset="0" style="stop-color:#0082CA"/>
			<stop  offset="1" style="stop-color:#95D4E9"/>
		</linearGradient>
		<polygon class="st0" points="696.2,25.4 1089.7,738.6 424.7,1105.5 31.2,392.3 		"/>
	</g>
	<path class="st1" d="M742.9,412.1c-0.2-7.7-2-15.4-5.3-22.3c0,0,0,0,0,0c-6.1-12.8-13.7-25.9-22.5-38.9
		c-8.5-12.5-17.8-24.4-27.6-35.4c-11.4-12.8-21.4-23-31.4-32.1c-11.6-10.5-23.2-20.2-34.7-28.6c-12.2-9-24.9-17.3-37.6-24.7
		c-13.7-7.8-27.3-14.5-40.5-20l-10.5-4.2l-13.4-4.6l-8.1-2.4c-0.6-0.2-1.3-0.4-1.9-0.5c-1.2-0.4-2.4-0.7-3.6-1l-5.5-1.3
		c-16.3-3.8-31-5.8-45.1-6.2c-15.9-0.3-31.2,1.3-45.5,4.7c-15.1,3.7-29.4,9.5-42.6,17.3l-9.7,6.3l-9.1,7c-1.9,1.6-3.8,3.3-5.6,5
		c-1,0.9-1.9,1.8-3,2.7c-0.2,0.2-0.5,0.4-0.7,0.7c-0.5,0.4-1,0.9-1.4,1.4l-5.9,6.2c-9.9,10.7-18.9,23.1-26.8,36.9
		c-7,12.1-13.2,25.6-18.9,41.3c-5.3,14.9-9.4,29.5-12.3,43.6c-3.1,15.3-5.4,30.4-6.6,44.7c-1.3,15.1-1.8,30.3-1.6,45.1
		c0.3,15.1,1.4,30.2,3.2,45c1.9,14.6,4.6,29.6,8.2,44.3c3.6,14.7,8.2,29.2,13.8,43c0.2,0.6,0.5,1.2,0.7,1.8c0.5,1.2,0.9,2.3,1.4,3.4
		l4.7,10.3c0.6,1.2,1.2,2.3,1.8,3.4c0.3,0.6,0.6,1.1,1,1.8c4,6.7,9.6,12.6,16.2,17.3c6,4.3,13.1,7.7,21,10.3
		c6.8,2.1,14.1,3.6,22.5,4.7c3.5,0.4,6.9,0.6,10.5,0.8c11,0.5,22.5,0.1,34.9-1.3c26.9-3,55.5-9.8,87.5-20.6
		c27.5-9.5,55.2-21.3,82.4-35.3c27.8-14.3,53.6-30,76.5-46.6c12.9-9.4,24.3-18.6,34.9-28.1c11.5-10.4,21.9-21.3,30.9-32.7
		c5.5-7.1,9.5-13,12.7-18.7c4.4-7.7,7.4-14.3,9.3-20.7C742,426.9,743.1,419.3,742.9,412.1 M404.5,630.3c-15.5,1.7-30.3,1.8-43.7,0.3
		c-7.9-1-14.8-2.5-21.1-4.5c-7.2-2.4-13.5-5.5-18.9-9.4c-5.7-4.1-10.6-9.3-14-15c-0.3-0.6-0.6-1.2-1-1.8c-0.5-1-1.1-1.9-1.5-2.9
		l-4.5-10.1c-0.5-1.1-0.9-2.2-1.3-3.2c-0.2-0.6-0.5-1.2-0.7-1.8c-5.4-13.5-9.8-27.6-13.2-42c-3.5-14.5-6.1-29.1-7.8-43.4
		c-1.7-14.4-2.7-29.3-2.9-44.1c-0.1-14.5,0.5-29.3,1.9-44.1c1.3-13.9,3.6-28.6,6.8-43.6c2.8-13.6,6.9-27.8,12.2-42.2
		c5.6-15.1,11.6-28.1,18.4-39.7c7.6-13.1,16.3-24.9,25.7-35c10.4-11.2,21.6-20.4,33.3-27.3c12.3-7.3,25.6-12.8,39.7-16.3
		c13.5-3.3,27.9-4.9,43-4.6c2,0,4.1,0.1,6.1,0.2c11.6,0.5,23.8,2.3,37.1,5.2l5.4,1.2c1.1,0.3,2.3,0.6,3.4,0.9
		c0.6,0.2,1.3,0.4,1.9,0.5l7.9,2.2l13,4.3l10.3,3.9c13.8,5.5,27.2,11.8,39.9,18.7c12.6,7,25.3,14.9,37.5,23.5
		c24.9,17.7,47.2,37.4,66.4,58.5c9.8,10.8,19.1,22.4,27.6,34.6c8.9,12.7,16.5,25.5,22.6,38c3.1,6.4,4.8,13.6,5,20.7
		c0.2,6.7-0.9,13.9-3.2,21.3c-1.9,6.1-4.7,12.4-9,19.9c-3.1,5.5-7,11.3-12.4,18.2c-8.6,10.8-18.6,21.3-30.6,31.9
		c-10.6,9.4-22,18.4-34.8,27.5c-22.9,16.2-48.6,31.5-76.3,45.4c-27.1,13.5-54.7,25-82,34.1C459.1,621,430.9,627.5,404.5,630.3"/>
</g>
</svg>
