<?xml version="1.0" standalone="no"?>
<!DOCTYPE svg PUBLIC "-//W3C//DTD SVG 20010904//EN"
 "http://www.w3.org/TR/2001/REC-SVG-20010904/DTD/svg10.dtd">
<svg version="1.0" xmlns="http://www.w3.org/2000/svg"
 width="7801.000000pt" height="3301.000000pt" viewBox="0 0 7801.000000 3301.000000"
 preserveAspectRatio="xMidYMid meet">

<g transform="translate(0.000000,3301.000000) scale(0.100000,-0.100000)"
fill="#000000" stroke="none">
<path d="M63317 28762 c-208 -114 -382 -214 -387 -222 -4 -8 -276 -1612 -605
-3565 -329 -1952 -601 -3554 -605 -3558 -4 -5 -1498 625 -3321 1399 -1823 774
-3322 1409 -3332 1412 -22 6 -772 -402 -792 -432 -20 -27 -19 -59 3 -84 10
-12 1478 -625 3677 -1537 2013 -834 3664 -1520 3669 -1525 4 -4 -73 -459 -173
-1016 -100 -554 -179 -1009 -177 -1011 4 -4 782 421 798 435 4 4 55 292 114
640 60 348 111 637 114 642 4 6 252 -93 599 -240 327 -137 598 -250 603 -250
5 0 185 97 401 216 216 119 398 219 405 223 6 4 -418 184 -944 401 -526 217
-958 400 -960 405 -3 6 308 1760 691 3899 382 2138 695 3898 695 3910 0 29
-40 66 -71 66 -13 0 -194 -94 -402 -208z"/>
<path d="M2577 27170 l-27 -21 0 -6429 0 -6429 26 -20 c26 -20 38 -21 356 -21
l329 0 24 25 25 24 0 3121 0 3120 4285 0 4285 0 0 -3110 c0 -3329 -2 -3155 45
-3174 32 -12 652 -7 680 6 16 7 29 24 36 47 7 25 9 2058 7 6434 l-3 6399 -28
24 -28 24 -319 0 c-338 0 -359 -3 -379 -47 -8 -17 -11 -828 -11 -2953 l0
-2930 -4285 0 -4285 0 0 2939 c0 2878 0 2939 -19 2962 l-19 24 -334 3 c-327 3
-335 2 -361 -18z"/>
<path d="M20174 27178 c-12 -5 -27 -21 -33 -34 -8 -18 -11 -1743 -11 -6425 0
-5597 2 -6404 15 -6428 8 -16 22 -31 30 -35 9 -3 1784 -6 3944 -6 l3928 0 27
21 26 20 0 323 c0 300 -1 324 -18 339 -17 16 -282 17 -3605 17 l-3587 0 0
2785 0 2785 3515 0 3516 0 24 25 25 24 0 309 c0 298 -1 310 -21 336 l-20 26
-3520 0 -3519 0 0 2600 0 2600 3584 2 c3508 3 3584 3 3605 22 21 19 21 26 21
342 l0 323 -26 20 -27 21 -3926 -1 c-2682 0 -3933 -4 -3947 -11z"/>
<path d="M34625 27165 l-25 -24 0 -6421 0 -6421 25 -24 24 -25 3539 0 3539 0
27 21 26 20 0 318 c0 270 -2 320 -16 339 l-15 22 -3195 0 -3194 0 0 6085 0
6086 -25 24 -24 25 -331 0 -331 0 -24 -25z"/>
<path d="M48153 27180 c-12 -5 -26 -18 -32 -29 -8 -14 -11 -1915 -11 -6436 l0
-6416 25 -24 24 -25 329 0 c318 0 330 1 356 21 l26 20 0 6429 0 6429 -26 20
c-26 20 -38 21 -348 20 -176 0 -331 -4 -343 -9z"/>
</g>
</svg>
